<svg version="1.1" xmlns="http://www.w3.org/2000/svg" xmlns:xlink="http://www.w3.org/1999/xlink" width="512.000000pt" height="512.000000pt" viewBox="0,0,256,256"><g fill="#ffffff" fill-rule="nonzero" stroke="none" stroke-width="1" stroke-linecap="butt" stroke-linejoin="miter" stroke-miterlimit="10" stroke-dasharray="" stroke-dashoffset="0" font-family="none" font-weight="none" font-size="none" text-anchor="none" style="mix-blend-mode: normal"><g transform="translate(0,-0.05452) scale(0.5,0.5)"><g transform="translate(0,512) scale(0.1,-0.1)"><path d="M90,4948c-50,-26 -90,-89 -90,-143c1,-47 34,-110 71,-133c19,-11 185,-79 369,-152c184,-72 338,-134 342,-138c3,-4 113,-590 243,-1302c131,-712 243,-1309 250,-1327c8,-17 32,-46 56,-62c36,-27 51,-31 106,-31c34,0 63,-3 63,-6c0,-3 -40,-118 -90,-256c-93,-257 -103,-304 -76,-357c24,-46 62,-64 152,-70l82,-6l-39,-65c-53,-86 -72,-157 -73,-260c-1,-225 151,-416 379,-475c157,-40 325,8 451,130c98,96 147,213 147,350c-1,111 -30,203 -89,282c-13,17 -24,34 -24,37c0,3 239,6 531,6h531l-24,-32c-146,-192 -125,-469 48,-642c86,-86 228,-146 345,-146c210,1 408,150 470,354c43,142 13,313 -78,434l-24,32h88c64,0 97,5 122,18c100,50 105,181 10,237c-33,20 -54,20 -1361,23c-731,1 -1328,4 -1328,6c0,6 118,331 134,369l15,37h1256c1239,0 1256,0 1295,20c26,13 47,34 60,60c29,57 710,2185 710,2218c0,51 -41,115 -90,140c-44,22 -66,24 -1660,92l-1615,69l-45,-22c-60,-29 -90,-76 -90,-139c0,-27 7,-62 15,-77c20,-40 70,-79 108,-86c18,-3 695,-35 1505,-70c811,-35 1476,-65 1478,-68c3,-3 -125,-409 -283,-903l-288,-899l-1297,-3l-1296,-2l-5,22c-3,13 -110,590 -237,1283c-146,794 -237,1271 -248,1289c-9,16 -29,38 -43,48c-37,28 -807,330 -854,335c-29,3 -53,-2 -85,-19zM2028,844c147,-61 178,-257 57,-362c-47,-42 -77,-53 -141,-53c-64,0 -110,18 -153,62c-44,44 -61,86 -61,154c0,154 157,258 298,199zM3872,824c50,-34 98,-119 98,-172c0,-123 -95,-223 -214,-224c-183,-2 -285,192 -181,342c63,91 206,118 297,54z"></path></g></g></g></svg>